<svg width="390" height="844" viewBox="0 0 390 844" fill="none" xmlns="http://www.w3.org/2000/svg">
<g clip-path="url(#clip0_1_529)">
<rect width="390" height="844" fill="white"/>
<path d="M69.1187 395.484C71.2467 395.484 73.0854 395.885 74.6347 396.688C76.2027 397.472 77.3974 398.601 78.2187 400.076C79.0587 401.551 79.4787 403.287 79.4787 405.284C79.4787 407.281 79.0587 409.017 78.2187 410.492C77.3974 411.948 76.2027 413.068 74.6347 413.852C73.0854 414.617 71.2467 415 69.1187 415H63.0427V395.484H69.1187ZM69.1187 412.9C71.6387 412.9 73.5614 412.237 74.8867 410.912C76.2121 409.568 76.8747 407.692 76.8747 405.284C76.8747 402.857 76.2027 400.963 74.8587 399.6C73.5334 398.237 71.6201 397.556 69.1187 397.556H65.5907V412.9H69.1187ZM84.1556 397.164C83.6703 397.164 83.2596 396.996 82.9236 396.66C82.5876 396.324 82.4196 395.913 82.4196 395.428C82.4196 394.943 82.5876 394.532 82.9236 394.196C83.2596 393.86 83.6703 393.692 84.1556 393.692C84.6223 393.692 85.0143 393.86 85.3316 394.196C85.6676 394.532 85.8356 394.943 85.8356 395.428C85.8356 395.913 85.6676 396.324 85.3316 396.66C85.0143 396.996 84.6223 397.164 84.1556 397.164ZM85.3876 399.656V415H82.8396V399.656H85.3876ZM97.2062 399.376C99.0729 399.376 100.585 399.945 101.742 401.084C102.9 402.204 103.478 403.828 103.478 405.956V415H100.958V406.32C100.958 404.789 100.576 403.623 99.8102 402.82C99.0449 401.999 97.9996 401.588 96.6742 401.588C95.3302 401.588 94.2569 402.008 93.4542 402.848C92.6702 403.688 92.2782 404.911 92.2782 406.516V415H89.7302V399.656H92.2782V401.84C92.7822 401.056 93.4636 400.449 94.3222 400.02C95.1996 399.591 96.1609 399.376 97.2062 399.376ZM108.956 397.164C108.471 397.164 108.06 396.996 107.724 396.66C107.388 396.324 107.22 395.913 107.22 395.428C107.22 394.943 107.388 394.532 107.724 394.196C108.06 393.86 108.471 393.692 108.956 393.692C109.423 393.692 109.815 393.86 110.132 394.196C110.468 394.532 110.636 394.943 110.636 395.428C110.636 395.913 110.468 396.324 110.132 396.66C109.815 396.996 109.423 397.164 108.956 397.164ZM110.188 399.656V415H107.64V399.656H110.188ZM122.007 399.376C123.874 399.376 125.386 399.945 126.543 401.084C127.7 402.204 128.279 403.828 128.279 405.956V415H125.759V406.32C125.759 404.789 125.376 403.623 124.611 402.82C123.846 401.999 122.8 401.588 121.475 401.588C120.131 401.588 119.058 402.008 118.255 402.848C117.471 403.688 117.079 404.911 117.079 406.516V415H114.531V399.656H117.079V401.84C117.583 401.056 118.264 400.449 119.123 400.02C120 399.591 120.962 399.376 122.007 399.376ZM138.769 399.404C140.094 399.404 141.252 399.693 142.241 400.272C143.249 400.851 143.996 401.579 144.481 402.456V399.656H147.057V415.336C147.057 416.736 146.758 417.977 146.161 419.06C145.564 420.161 144.705 421.02 143.585 421.636C142.484 422.252 141.196 422.56 139.721 422.56C137.705 422.56 136.025 422.084 134.681 421.132C133.337 420.18 132.544 418.883 132.301 417.24H134.821C135.101 418.173 135.68 418.92 136.557 419.48C137.434 420.059 138.489 420.348 139.721 420.348C141.121 420.348 142.26 419.909 143.137 419.032C144.033 418.155 144.481 416.923 144.481 415.336V412.116C143.977 413.012 143.23 413.759 142.241 414.356C141.252 414.953 140.094 415.252 138.769 415.252C137.406 415.252 136.165 414.916 135.045 414.244C133.944 413.572 133.076 412.629 132.441 411.416C131.806 410.203 131.489 408.821 131.489 407.272C131.489 405.704 131.806 404.332 132.441 403.156C133.076 401.961 133.944 401.037 135.045 400.384C136.165 399.731 137.406 399.404 138.769 399.404ZM144.481 407.3C144.481 406.143 144.248 405.135 143.781 404.276C143.314 403.417 142.68 402.764 141.877 402.316C141.093 401.849 140.225 401.616 139.273 401.616C138.321 401.616 137.453 401.84 136.669 402.288C135.885 402.736 135.26 403.389 134.793 404.248C134.326 405.107 134.093 406.115 134.093 407.272C134.093 408.448 134.326 409.475 134.793 410.352C135.26 411.211 135.885 411.873 136.669 412.34C137.453 412.788 138.321 413.012 139.273 413.012C140.225 413.012 141.093 412.788 141.877 412.34C142.68 411.873 143.314 411.211 143.781 410.352C144.248 409.475 144.481 408.457 144.481 407.3ZM157.876 407.272C157.876 405.704 158.193 404.332 158.828 403.156C159.463 401.961 160.331 401.037 161.432 400.384C162.552 399.731 163.793 399.404 165.156 399.404C166.5 399.404 167.667 399.693 168.656 400.272C169.645 400.851 170.383 401.579 170.868 402.456V399.656H173.444V415H170.868V412.144C170.364 413.04 169.608 413.787 168.6 414.384C167.611 414.963 166.453 415.252 165.128 415.252C163.765 415.252 162.533 414.916 161.432 414.244C160.331 413.572 159.463 412.629 158.828 411.416C158.193 410.203 157.876 408.821 157.876 407.272ZM170.868 407.3C170.868 406.143 170.635 405.135 170.168 404.276C169.701 403.417 169.067 402.764 168.264 402.316C167.48 401.849 166.612 401.616 165.66 401.616C164.708 401.616 163.84 401.84 163.056 402.288C162.272 402.736 161.647 403.389 161.18 404.248C160.713 405.107 160.48 406.115 160.48 407.272C160.48 408.448 160.713 409.475 161.18 410.352C161.647 411.211 162.272 411.873 163.056 412.34C163.84 412.788 164.708 413.012 165.66 413.012C166.612 413.012 167.48 412.788 168.264 412.34C169.067 411.873 169.701 411.211 170.168 410.352C170.635 409.475 170.868 408.457 170.868 407.3ZM185.226 399.376C187.092 399.376 188.604 399.945 189.762 401.084C190.919 402.204 191.498 403.828 191.498 405.956V415H188.978V406.32C188.978 404.789 188.595 403.623 187.83 402.82C187.064 401.999 186.019 401.588 184.694 401.588C183.35 401.588 182.276 402.008 181.474 402.848C180.69 403.688 180.298 404.911 180.298 406.516V415H177.75V399.656H180.298V401.84C180.802 401.056 181.483 400.449 182.342 400.02C183.219 399.591 184.18 399.376 185.226 399.376ZM194.708 407.272C194.708 405.704 195.025 404.332 195.66 403.156C196.295 401.961 197.163 401.037 198.264 400.384C199.384 399.731 200.635 399.404 202.016 399.404C203.211 399.404 204.321 399.684 205.348 400.244C206.375 400.785 207.159 401.504 207.7 402.4V394.28H210.276V415H207.7V412.116C207.196 413.031 206.449 413.787 205.46 414.384C204.471 414.963 203.313 415.252 201.988 415.252C200.625 415.252 199.384 414.916 198.264 414.244C197.163 413.572 196.295 412.629 195.66 411.416C195.025 410.203 194.708 408.821 194.708 407.272ZM207.7 407.3C207.7 406.143 207.467 405.135 207 404.276C206.533 403.417 205.899 402.764 205.096 402.316C204.312 401.849 203.444 401.616 202.492 401.616C201.54 401.616 200.672 401.84 199.888 402.288C199.104 402.736 198.479 403.389 198.012 404.248C197.545 405.107 197.312 406.115 197.312 407.272C197.312 408.448 197.545 409.475 198.012 410.352C198.479 411.211 199.104 411.873 199.888 412.34C200.672 412.788 201.54 413.012 202.492 413.012C203.444 413.012 204.312 412.788 205.096 412.34C205.899 411.873 206.533 411.211 207 410.352C207.467 409.475 207.7 408.457 207.7 407.3ZM228.123 395.484C230.251 395.484 232.089 395.885 233.639 396.688C235.207 397.472 236.401 398.601 237.223 400.076C238.063 401.551 238.483 403.287 238.483 405.284C238.483 407.281 238.063 409.017 237.223 410.492C236.401 411.948 235.207 413.068 233.639 413.852C232.089 414.617 230.251 415 228.123 415H222.047V395.484H228.123ZM228.123 412.9C230.643 412.9 232.565 412.237 233.891 410.912C235.216 409.568 235.879 407.692 235.879 405.284C235.879 402.857 235.207 400.963 233.863 399.6C232.537 398.237 230.624 397.556 228.123 397.556H224.595V412.9H228.123ZM255.844 406.74C255.844 407.225 255.816 407.739 255.76 408.28H243.496C243.589 409.792 244.102 410.977 245.036 411.836C245.988 412.676 247.136 413.096 248.48 413.096C249.581 413.096 250.496 412.844 251.224 412.34C251.97 411.817 252.493 411.127 252.792 410.268H255.536C255.125 411.743 254.304 412.947 253.072 413.88C251.84 414.795 250.309 415.252 248.48 415.252C247.024 415.252 245.717 414.925 244.56 414.272C243.421 413.619 242.525 412.695 241.872 411.5C241.218 410.287 240.892 408.887 240.892 407.3C240.892 405.713 241.209 404.323 241.844 403.128C242.478 401.933 243.365 401.019 244.504 400.384C245.661 399.731 246.986 399.404 248.48 399.404C249.936 399.404 251.224 399.721 252.344 400.356C253.464 400.991 254.322 401.868 254.92 402.988C255.536 404.089 255.844 405.34 255.844 406.74ZM253.212 406.208C253.212 405.237 252.997 404.407 252.568 403.716C252.138 403.007 251.55 402.475 250.804 402.12C250.076 401.747 249.264 401.56 248.368 401.56C247.08 401.56 245.978 401.971 245.064 402.792C244.168 403.613 243.654 404.752 243.524 406.208H253.212ZM261.755 394.28V415H259.207V394.28H261.755ZM267.413 397.164C266.928 397.164 266.517 396.996 266.181 396.66C265.845 396.324 265.677 395.913 265.677 395.428C265.677 394.943 265.845 394.532 266.181 394.196C266.517 393.86 266.928 393.692 267.413 393.692C267.88 393.692 268.272 393.86 268.589 394.196C268.925 394.532 269.093 394.943 269.093 395.428C269.093 395.913 268.925 396.324 268.589 396.66C268.272 396.996 267.88 397.164 267.413 397.164ZM268.645 399.656V415H266.097V399.656H268.645ZM278.7 412.648L283.46 399.656H286.176L280.156 415H277.188L271.168 399.656H273.912L278.7 412.648ZM302.683 406.74C302.683 407.225 302.655 407.739 302.599 408.28H290.335C290.429 409.792 290.942 410.977 291.875 411.836C292.827 412.676 293.975 413.096 295.319 413.096C296.421 413.096 297.335 412.844 298.063 412.34C298.81 411.817 299.333 411.127 299.631 410.268H302.375C301.965 411.743 301.143 412.947 299.911 413.88C298.679 414.795 297.149 415.252 295.319 415.252C293.863 415.252 292.557 414.925 291.399 414.272C290.261 413.619 289.365 412.695 288.711 411.5C288.058 410.287 287.731 408.887 287.731 407.3C287.731 405.713 288.049 404.323 288.683 403.128C289.318 401.933 290.205 401.019 291.343 400.384C292.501 399.731 293.826 399.404 295.319 399.404C296.775 399.404 298.063 399.721 299.183 400.356C300.303 400.991 301.162 401.868 301.759 402.988C302.375 404.089 302.683 405.34 302.683 406.74ZM300.051 406.208C300.051 405.237 299.837 404.407 299.407 403.716C298.978 403.007 298.39 402.475 297.643 402.12C296.915 401.747 296.103 401.56 295.207 401.56C293.919 401.56 292.818 401.971 291.903 402.792C291.007 403.613 290.494 404.752 290.363 406.208H300.051ZM308.595 402.148C309.043 401.271 309.677 400.589 310.499 400.104C311.339 399.619 312.356 399.376 313.551 399.376V402.008H312.879C310.023 402.008 308.595 403.557 308.595 406.656V415H306.047V399.656H308.595V402.148ZM329.708 399.656L320.468 422.224H317.836L320.86 414.832L314.672 399.656H317.5L322.316 412.088L327.076 399.656H329.708ZM99.0765 447L94.4285 439.02H91.3485V447H88.8005V427.484H95.1005C96.5752 427.484 97.8165 427.736 98.8245 428.24C99.8512 428.744 100.617 429.425 101.121 430.284C101.625 431.143 101.877 432.123 101.877 433.224C101.877 434.568 101.485 435.753 100.701 436.78C99.9352 437.807 98.7779 438.488 97.2285 438.824L102.129 447H99.0765ZM91.3485 436.976H95.1005C96.4819 436.976 97.5179 436.64 98.2085 435.968C98.8992 435.277 99.2445 434.363 99.2445 433.224C99.2445 432.067 98.8992 431.171 98.2085 430.536C97.5365 429.901 96.5005 429.584 95.1005 429.584H91.3485V436.976ZM119.836 438.74C119.836 439.225 119.808 439.739 119.752 440.28H107.488C107.581 441.792 108.094 442.977 109.028 443.836C109.98 444.676 111.128 445.096 112.472 445.096C113.573 445.096 114.488 444.844 115.216 444.34C115.962 443.817 116.485 443.127 116.784 442.268H119.528C119.117 443.743 118.296 444.947 117.064 445.88C115.832 446.795 114.301 447.252 112.472 447.252C111.016 447.252 109.709 446.925 108.552 446.272C107.413 445.619 106.517 444.695 105.864 443.5C105.21 442.287 104.884 440.887 104.884 439.3C104.884 437.713 105.201 436.323 105.836 435.128C106.47 433.933 107.357 433.019 108.496 432.384C109.653 431.731 110.978 431.404 112.472 431.404C113.928 431.404 115.216 431.721 116.336 432.356C117.456 432.991 118.314 433.868 118.912 434.988C119.528 436.089 119.836 437.34 119.836 438.74ZM117.204 438.208C117.204 437.237 116.989 436.407 116.56 435.716C116.13 435.007 115.542 434.475 114.796 434.12C114.068 433.747 113.256 433.56 112.36 433.56C111.072 433.56 109.97 433.971 109.056 434.792C108.16 435.613 107.646 436.752 107.516 438.208H117.204ZM128.631 447.252C127.455 447.252 126.4 447.056 125.467 446.664C124.534 446.253 123.796 445.693 123.255 444.984C122.714 444.256 122.415 443.425 122.359 442.492H124.991C125.066 443.257 125.42 443.883 126.055 444.368C126.708 444.853 127.558 445.096 128.603 445.096C129.574 445.096 130.339 444.881 130.899 444.452C131.459 444.023 131.739 443.481 131.739 442.828C131.739 442.156 131.44 441.661 130.843 441.344C130.246 441.008 129.322 440.681 128.071 440.364C126.932 440.065 125.999 439.767 125.271 439.468C124.562 439.151 123.946 438.693 123.423 438.096C122.919 437.48 122.667 436.677 122.667 435.688C122.667 434.904 122.9 434.185 123.367 433.532C123.834 432.879 124.496 432.365 125.355 431.992C126.214 431.6 127.194 431.404 128.295 431.404C129.994 431.404 131.366 431.833 132.411 432.692C133.456 433.551 134.016 434.727 134.091 436.22H131.543C131.487 435.417 131.16 434.773 130.563 434.288C129.984 433.803 129.2 433.56 128.211 433.56C127.296 433.56 126.568 433.756 126.027 434.148C125.486 434.54 125.215 435.053 125.215 435.688C125.215 436.192 125.374 436.612 125.691 436.948C126.027 437.265 126.438 437.527 126.923 437.732C127.427 437.919 128.118 438.133 128.995 438.376C130.096 438.675 130.992 438.973 131.683 439.272C132.374 439.552 132.962 439.981 133.447 440.56C133.951 441.139 134.212 441.895 134.231 442.828C134.231 443.668 133.998 444.424 133.531 445.096C133.064 445.768 132.402 446.3 131.543 446.692C130.703 447.065 129.732 447.252 128.631 447.252ZM140.936 433.756V442.8C140.936 443.547 141.095 444.079 141.412 444.396C141.729 444.695 142.28 444.844 143.064 444.844H144.94V447H142.644C141.225 447 140.161 446.673 139.452 446.02C138.743 445.367 138.388 444.293 138.388 442.8V433.756H136.4V431.656H138.388V427.792H140.936V431.656H144.94V433.756H140.936ZM147.075 439.272C147.075 437.704 147.392 436.332 148.027 435.156C148.662 433.961 149.53 433.037 150.631 432.384C151.751 431.731 152.992 431.404 154.355 431.404C155.699 431.404 156.866 431.693 157.855 432.272C158.844 432.851 159.582 433.579 160.067 434.456V431.656H162.643V447H160.067V444.144C159.563 445.04 158.807 445.787 157.799 446.384C156.81 446.963 155.652 447.252 154.327 447.252C152.964 447.252 151.732 446.916 150.631 446.244C149.53 445.572 148.662 444.629 148.027 443.416C147.392 442.203 147.075 440.821 147.075 439.272ZM160.067 439.3C160.067 438.143 159.834 437.135 159.367 436.276C158.9 435.417 158.266 434.764 157.463 434.316C156.679 433.849 155.811 433.616 154.859 433.616C153.907 433.616 153.039 433.84 152.255 434.288C151.471 434.736 150.846 435.389 150.379 436.248C149.912 437.107 149.679 438.115 149.679 439.272C149.679 440.448 149.912 441.475 150.379 442.352C150.846 443.211 151.471 443.873 152.255 444.34C153.039 444.788 153.907 445.012 154.859 445.012C155.811 445.012 156.679 444.788 157.463 444.34C158.266 443.873 158.9 443.211 159.367 442.352C159.834 441.475 160.067 440.457 160.067 439.3ZM180.557 431.656V447H178.009V444.732C177.524 445.516 176.842 446.132 175.965 446.58C175.106 447.009 174.154 447.224 173.109 447.224C171.914 447.224 170.841 446.981 169.889 446.496C168.937 445.992 168.181 445.245 167.621 444.256C167.08 443.267 166.809 442.063 166.809 440.644V431.656H169.329V440.308C169.329 441.82 169.712 442.987 170.477 443.808C171.242 444.611 172.288 445.012 173.613 445.012C174.976 445.012 176.049 444.592 176.833 443.752C177.617 442.912 178.009 441.689 178.009 440.084V431.656H180.557ZM187.407 434.148C187.855 433.271 188.49 432.589 189.311 432.104C190.151 431.619 191.168 431.376 192.363 431.376V434.008H191.691C188.835 434.008 187.407 435.557 187.407 438.656V447H184.859V431.656H187.407V434.148ZM194.352 439.272C194.352 437.704 194.67 436.332 195.304 435.156C195.939 433.961 196.807 433.037 197.908 432.384C199.028 431.731 200.27 431.404 201.632 431.404C202.976 431.404 204.143 431.693 205.132 432.272C206.122 432.851 206.859 433.579 207.344 434.456V431.656H209.92V447H207.344V444.144C206.84 445.04 206.084 445.787 205.076 446.384C204.087 446.963 202.93 447.252 201.604 447.252C200.242 447.252 199.01 446.916 197.908 446.244C196.807 445.572 195.939 444.629 195.304 443.416C194.67 442.203 194.352 440.821 194.352 439.272ZM207.344 439.3C207.344 438.143 207.111 437.135 206.644 436.276C206.178 435.417 205.543 434.764 204.74 434.316C203.956 433.849 203.088 433.616 202.136 433.616C201.184 433.616 200.316 433.84 199.532 434.288C198.748 434.736 198.123 435.389 197.656 436.248C197.19 437.107 196.956 438.115 196.956 439.272C196.956 440.448 197.19 441.475 197.656 442.352C198.123 443.211 198.748 443.873 199.532 444.34C200.316 444.788 201.184 445.012 202.136 445.012C203.088 445.012 203.956 444.788 204.74 444.34C205.543 443.873 206.178 443.211 206.644 442.352C207.111 441.475 207.344 440.457 207.344 439.3ZM221.702 431.376C223.569 431.376 225.081 431.945 226.238 433.084C227.396 434.204 227.974 435.828 227.974 437.956V447H225.454V438.32C225.454 436.789 225.072 435.623 224.306 434.82C223.541 433.999 222.496 433.588 221.17 433.588C219.826 433.588 218.753 434.008 217.95 434.848C217.166 435.688 216.774 436.911 216.774 438.516V447H214.226V431.656H216.774V433.84C217.278 433.056 217.96 432.449 218.818 432.02C219.696 431.591 220.657 431.376 221.702 431.376ZM235.244 433.756V442.8C235.244 443.547 235.403 444.079 235.72 444.396C236.038 444.695 236.588 444.844 237.372 444.844H239.248V447H236.952C235.534 447 234.47 446.673 233.76 446.02C233.051 445.367 232.696 444.293 232.696 442.8V433.756H230.708V431.656H232.696V427.792H235.244V431.656H239.248V433.756H235.244ZM261.337 442.66H252.825L251.257 447H248.569L255.625 427.596H258.565L265.593 447H262.905L261.337 442.66ZM260.609 440.588L257.081 430.732L253.553 440.588H260.609ZM271.216 434.484C271.72 433.607 272.466 432.879 273.456 432.3C274.464 431.703 275.63 431.404 276.956 431.404C278.318 431.404 279.55 431.731 280.652 432.384C281.772 433.037 282.649 433.961 283.284 435.156C283.918 436.332 284.236 437.704 284.236 439.272C284.236 440.821 283.918 442.203 283.284 443.416C282.649 444.629 281.772 445.572 280.652 446.244C279.55 446.916 278.318 447.252 276.956 447.252C275.649 447.252 274.492 446.963 273.484 446.384C272.494 445.787 271.738 445.049 271.216 444.172V454.28H268.668V431.656H271.216V434.484ZM281.632 439.272C281.632 438.115 281.398 437.107 280.932 436.248C280.465 435.389 279.83 434.736 279.028 434.288C278.244 433.84 277.376 433.616 276.424 433.616C275.49 433.616 274.622 433.849 273.82 434.316C273.036 434.764 272.401 435.427 271.916 436.304C271.449 437.163 271.216 438.161 271.216 439.3C271.216 440.457 271.449 441.475 271.916 442.352C272.401 443.211 273.036 443.873 273.82 444.34C274.622 444.788 275.49 445.012 276.424 445.012C277.376 445.012 278.244 444.788 279.028 444.34C279.83 443.873 280.465 443.211 280.932 442.352C281.398 441.475 281.632 440.448 281.632 439.272ZM290.138 434.484C290.642 433.607 291.388 432.879 292.378 432.3C293.386 431.703 294.552 431.404 295.878 431.404C297.24 431.404 298.472 431.731 299.574 432.384C300.694 433.037 301.571 433.961 302.206 435.156C302.84 436.332 303.158 437.704 303.158 439.272C303.158 440.821 302.84 442.203 302.206 443.416C301.571 444.629 300.694 445.572 299.574 446.244C298.472 446.916 297.24 447.252 295.878 447.252C294.571 447.252 293.414 446.963 292.406 446.384C291.416 445.787 290.66 445.049 290.138 444.172V454.28H287.59V431.656H290.138V434.484ZM300.554 439.272C300.554 438.115 300.32 437.107 299.854 436.248C299.387 435.389 298.752 434.736 297.95 434.288C297.166 433.84 296.298 433.616 295.346 433.616C294.412 433.616 293.544 433.849 292.742 434.316C291.958 434.764 291.323 435.427 290.838 436.304C290.371 437.163 290.138 438.161 290.138 439.3C290.138 440.457 290.371 441.475 290.838 442.352C291.323 443.211 291.958 443.873 292.742 444.34C293.544 444.788 294.412 445.012 295.346 445.012C296.298 445.012 297.166 444.788 297.95 444.34C298.752 443.873 299.387 443.211 299.854 442.352C300.32 441.475 300.554 440.448 300.554 439.272Z" fill="black" fill-opacity="0.8"/>
<path d="M238.419 316.996H239.348C240.005 316.998 240.656 316.87 241.263 316.618C241.87 316.367 242.421 315.997 242.884 315.531L248 310.375L246.611 308.975L241.388 314.199L240.302 313.113L245.526 307.889L244.088 306.494L238.884 311.698L237.801 310.613L243.025 305.388L241.625 304L236.469 309.116C236.003 309.579 235.633 310.13 235.382 310.737C235.13 311.344 235.002 311.995 235.004 312.653V313.581L232.308 316.277L220 304C217.233 307.429 218.867 313.732 221.983 316.848L227.326 322.192C228.986 323.851 229.315 323.999 231.198 323.242C231.603 323.079 231.751 323.097 232.129 323.474L232.941 324.233C233.124 324.42 233.129 324.475 233.129 324.834V325.18C233.129 326.497 233.971 327.255 234.526 327.82L241 334L245.5 329.5L235.723 319.692L238.419 316.996Z" fill="#FAA881"/>
<path d="M231.211 325.162C229.347 325.544 228.204 325.896 226.018 323.71C225.983 323.675 225.947 323.641 225.912 323.606L224.693 322.388L218 329L223 334L232 325L231.211 325.162Z" fill="#FAA881"/>
<path d="M262.572 308.88V317.04H272.172V320.76H262.572V329.28H273.372V333H258.012V305.16H273.372V308.88H262.572Z" fill="black"/>
<path d="M115.511 319.04C115.511 316.32 116.138 313.88 117.391 311.72C118.671 309.56 120.391 307.88 122.551 306.68C124.738 305.453 127.125 304.84 129.711 304.84C132.671 304.84 135.298 305.573 137.591 307.04C139.911 308.48 141.591 310.533 142.631 313.2H137.151C136.431 311.733 135.431 310.64 134.151 309.92C132.871 309.2 131.391 308.84 129.711 308.84C127.871 308.84 126.231 309.253 124.791 310.08C123.351 310.907 122.218 312.093 121.391 313.64C120.591 315.187 120.191 316.987 120.191 319.04C120.191 321.093 120.591 322.893 121.391 324.44C122.218 325.987 123.351 327.187 124.791 328.04C126.231 328.867 127.871 329.28 129.711 329.28C131.391 329.28 132.871 328.92 134.151 328.2C135.431 327.48 136.431 326.387 137.151 324.92H142.631C141.591 327.587 139.911 329.64 137.591 331.08C135.298 332.52 132.671 333.24 129.711 333.24C127.098 333.24 124.711 332.64 122.551 331.44C120.391 330.213 118.671 328.52 117.391 326.36C116.138 324.2 115.511 321.76 115.511 319.04Z" fill="black"/>
<path d="M168.803 333L162.403 321.88H158.923V333H154.363V305.2H163.963C166.097 305.2 167.897 305.573 169.363 306.32C170.857 307.067 171.963 308.067 172.683 309.32C173.43 310.573 173.803 311.973 173.803 313.52C173.803 315.333 173.27 316.987 172.203 318.48C171.163 319.947 169.55 320.947 167.363 321.48L174.243 333H168.803ZM158.923 318.24H163.963C165.67 318.24 166.95 317.813 167.803 316.96C168.683 316.107 169.123 314.96 169.123 313.52C169.123 312.08 168.697 310.96 167.843 310.16C166.99 309.333 165.697 308.92 163.963 308.92H158.923V318.24Z" fill="black"/>
<path d="M202.815 327.32H191.175L189.175 333H184.415L194.375 305.16H199.655L209.615 333H204.815L202.815 327.32ZM201.535 323.6L197.015 310.68L192.455 323.6H201.535Z" fill="black"/>
<path d="M27.2136 155.371L-41.6578 51.1756L27.2136 155.371ZM-7.22213 103.273L32.821 76.8053L-7.22213 103.273ZM7.53602 125.601L34.2314 107.955L7.53602 125.601ZM-21.9803 80.9456L4.71513 63.3003L-21.9803 80.9456ZM0.518151 173.016L71.7282 125.947C74.458 128.114 77.5189 129.737 80.7352 130.722C83.9515 131.708 87.2598 132.038 90.4703 131.692C93.6807 131.346 96.73 130.332 99.443 128.707C102.156 127.082 104.48 124.879 106.28 122.225C108.08 119.57 109.322 116.516 109.934 113.237C110.546 109.959 110.516 106.521 109.846 103.121C109.177 99.7207 107.88 96.4253 106.03 93.424C104.181 90.4226 101.815 87.7743 99.0696 85.6311C109.436 74.8223 111.661 51.0007 99.5595 32.6921C87.4578 14.3835 64.6695 7.09549 50.6629 12.3968C48.831 5.62361 44.5557 -0.379362 38.7777 -4.29152C32.9996 -8.20368 26.1921 -9.70455 19.8526 -8.46396C13.5131 -7.22337 8.16098 -3.34295 4.97365 2.32366C1.78632 7.99028 1.02486 14.9789 2.85678 21.7521L-68.3532 68.8208L0.518151 173.016Z" stroke="#F56606" stroke-opacity="0.1" stroke-width="10"/>
<path d="M246.628 831.042L195.415 770.771V755.665H388V770.771L336.209 831.042H246.628ZM239.68 687.69C239.68 685.687 238.9 683.766 237.51 682.349C236.121 680.933 234.237 680.137 232.273 680.137C230.308 680.137 228.424 680.933 227.035 682.349C225.646 683.766 224.866 685.687 224.866 687.69V696.255L198.245 701.814C197.742 701.878 197.257 702.046 196.821 702.309C196.384 702.572 196.006 702.923 195.708 703.341C195.41 703.759 195.199 704.235 195.089 704.739C194.979 705.243 194.971 705.765 195.066 706.273C195.162 706.78 195.358 707.262 195.644 707.689C195.929 708.116 196.298 708.478 196.726 708.754C197.155 709.03 197.634 709.213 198.135 709.293C198.635 709.372 199.147 709.346 199.637 709.216L224.866 705.031V713.581L198.941 714.125C197.959 714.125 197.017 714.523 196.322 715.231C195.627 715.939 195.237 716.9 195.237 717.901C195.237 718.903 195.627 719.863 196.322 720.572C197.017 721.28 197.959 721.678 198.941 721.678L224.866 722.221V740.53H239.68V687.69ZM380.415 710.348L269.308 714.321V695.167L381.808 678.944C383.707 678.536 385.374 677.385 386.449 675.737C387.525 674.089 387.923 672.077 387.558 670.133C387.193 668.189 386.094 666.468 384.498 665.342C382.901 664.216 380.935 663.773 379.023 664.11L269.19 687.01C269.02 685.088 268.13 683.308 266.704 682.039C265.279 680.769 263.428 680.11 261.538 680.198C259.648 680.285 257.863 681.113 256.557 682.509C255.25 683.905 254.522 685.76 254.524 687.69V691.134L247.206 692.645V697.962L254.509 696.753V714.835L247.206 714.986V721.95L380.415 725.454C382.38 725.454 384.264 724.658 385.653 723.242C387.042 721.825 387.822 719.904 387.822 717.901C387.822 715.898 387.042 713.977 385.653 712.561C384.264 711.144 382.38 710.348 380.415 710.348ZM328.743 846.299H254.672V855H328.743V846.299Z" fill="#F56606" fill-opacity="0.1"/>
</g>
<defs>
<clipPath id="clip0_1_529">
<rect width="390" height="844" fill="white"/>
</clipPath>
</defs>
</svg>
